<svg width="114" height="100" viewBox="0 0 114 100" fill="none" xmlns="http://www.w3.org/2000/svg">
<path d="M109.779 0H4.06589C1.81695 0 0 2.03125 0 4.54545V95.4545C0 97.9688 1.81695 100 4.06589 100H109.779C112.028 100 113.845 97.9688 113.845 95.4545V4.54545C113.845 2.03125 112.028 0 109.779 0ZM34.8142 20.4545C39.2994 20.4545 42.946 24.5312 42.946 29.5455C42.946 34.5597 39.2994 38.6364 34.8142 38.6364C30.329 38.6364 26.6824 34.5597 26.6824 29.5455C26.6824 24.5312 30.329 20.4545 34.8142 20.4545ZM100.11 82.5426C99.9248 82.7164 99.6909 82.812 99.4492 82.8125H14.3831C13.824 82.8125 13.3666 82.3011 13.3666 81.6761C13.3666 81.4062 13.4556 81.1506 13.608 80.9375L35.2462 52.2443C35.602 51.7614 36.25 51.7045 36.682 52.1023C36.7201 52.1449 36.7709 52.1875 36.809 52.2443L49.4387 69.0057L69.5267 42.3722C69.8825 41.8892 70.5305 41.8324 70.9625 42.2301C71.0006 42.2727 71.0515 42.3153 71.0896 42.3722L100.262 80.9517C100.593 81.4205 100.542 82.1449 100.11 82.5426Z" fill="white"/>
</svg>
